<?xml version="1.0" encoding="utf-8"?>
<!-- Generator: Adobe Illustrator 23.0.5, SVG Export Plug-In . SVG Version: 6.00 Build 0)  -->
<svg version="1.1" xmlns="http://www.w3.org/2000/svg" xmlns:xlink="http://www.w3.org/1999/xlink" x="0px" y="0px"
	 viewBox="0 0 1080 1080" style="enable-background:new 0 0 1080 1080;" xml:space="preserve">
<style type="text/css">
	.st0{display:none;}
	.st1{display:inline;}
	.st2{fill:#FFFFFF;}
	.st3{fill:url(#SVGID_1_);}
	.st4{fill:#91B3FA;}
	.st5{fill:#BDD0FB;}
	.st6{opacity:0.3;}
	.st7{opacity:0.5;}
	.st8{opacity:0.43;}
	.st9{fill:url(#SVGID_2_);}
	.st10{fill:url(#SVGID_3_);}
	.st11{fill:#7D97F4;}
	.st12{fill:url(#SVGID_4_);}
	.st13{fill:url(#SVGID_5_);}
	.st14{clip-path:url(#SVGID_7_);}
	.st15{fill:url(#SVGID_8_);}
	.st16{fill:url(#SVGID_9_);}
	.st17{fill:url(#SVGID_10_);}
	.st18{fill:url(#SVGID_11_);}
	.st19{fill:url(#SVGID_12_);}
	.st20{fill:url(#SVGID_13_);}
	.st21{fill:url(#SVGID_14_);}
	.st22{fill:#4170FA;}
	.st23{fill:url(#SVGID_15_);}
	.st24{fill:url(#SVGID_16_);}
	.st25{fill:url(#SVGID_17_);}
	.st26{fill:url(#SVGID_18_);}
	.st27{fill:url(#SVGID_19_);}
	.st28{fill:url(#SVGID_20_);}
	.st29{fill:url(#SVGID_21_);}
	.st30{fill:url(#SVGID_22_);}
	.st31{fill:url(#SVGID_23_);}
	.st32{fill:url(#SVGID_24_);}
	.st33{fill:url(#SVGID_25_);}
	.st34{fill:url(#SVGID_26_);}
	.st35{fill:url(#SVGID_27_);}
	.st36{fill:url(#SVGID_28_);}
	.st37{opacity:0.7;fill:#FFFFFF;}
	.st38{opacity:0.7;}
	.st39{fill:url(#SVGID_29_);}
	.st40{fill:url(#SVGID_30_);}
	.st41{fill:url(#SVGID_31_);}
	.st42{fill:url(#SVGID_32_);}
	.st43{fill:url(#SVGID_33_);}
	.st44{fill:url(#SVGID_34_);}
	.st45{fill:url(#SVGID_35_);}
	.st46{fill:url(#SVGID_36_);}
	.st47{fill:url(#SVGID_37_);}
	.st48{fill:url(#SVGID_38_);}
	.st49{fill:url(#SVGID_39_);}
	.st50{fill:url(#SVGID_40_);}
	.st51{fill:url(#SVGID_41_);}
	.st52{fill:url(#SVGID_42_);}
	.st53{fill:url(#SVGID_43_);}
	.st54{fill:url(#SVGID_44_);}
	.st55{fill:url(#SVGID_45_);}
	.st56{fill:url(#SVGID_46_);}
	.st57{fill:url(#SVGID_47_);}
	.st58{fill:url(#SVGID_48_);}
	.st59{fill:url(#SVGID_49_);}
	.st60{fill:url(#SVGID_50_);}
	.st61{fill:url(#SVGID_51_);}
	.st62{opacity:0.39;fill:#FFFFFF;}
	.st63{fill:url(#SVGID_52_);}
	.st64{fill:url(#SVGID_53_);}
	.st65{fill:url(#SVGID_54_);}
	.st66{fill:url(#SVGID_55_);}
	.st67{fill:url(#SVGID_56_);}
	.st68{fill:url(#SVGID_57_);}
	.st69{opacity:0.56;fill:#FFFFFF;}
</style>
<g id="Background" class="st0">
	<g class="st1">
		<g>
			<rect x="-1315" y="-1315" class="st2" width="3710" height="3710"/>
		</g>
	</g>
</g>
<g id="Illustration">
	<g>
		<linearGradient id="SVGID_1_" gradientUnits="userSpaceOnUse" x1="1178.0117" y1="1251.2618" x2="415.8348" y2="439.9124">
			<stop  offset="0" style="stop-color:#DAE3FE"/>
			<stop  offset="1" style="stop-color:#E9EFFD"/>
		</linearGradient>
		<path class="st3" d="M947.9,926.9c-28,29.1-53.1,46.2-72.4,59.1c-187.4,125.9-401.6,89.6-467.8,77.2
			c-106.9-20-197-34.1-274.5-104.5c-176.1-160-167.5-493.9-33-700.7c16-24.5,150.3-224.9,365-253.1c5.3-0.7,9.2-1.1,12.6-1.4
			c33.2-3.5,239-22.2,406.8,119.2c24,20.2,62.7,56.8,98.5,112.4C1114.2,438.7,1114.6,754,947.9,926.9z"/>
		<g>
			<g>
				<path class="st4" d="M881.6,514.7c0,0,114.3-134.3,108.6-302.6c-4.9-146.3-93.6-122.7-50-58.5c12.8,18.9,36.3,38.5,38.7,59.4
					C989.5,307.4,949.9,414,881.6,514.7z"/>
			</g>
			<g>
				<path class="st4" d="M871.3,539c0,0,82.2-142.5,61.2-295.4c-18.3-132.9-89.9-96.1-47.4-44.8c12.5,15.1,34,28.9,38,47.6
					C941.1,330.8,918.4,435.1,871.3,539z"/>
			</g>
			<g>
				<path class="st4" d="M887.9,504.7c0,0,68.5-80.5,65.1-181.3c-2.9-87.7-56.1-73.5-30-35c7.7,11.3,21.8,23,23.2,35.6
					C952.6,380.5,928.9,444.4,887.9,504.7z"/>
			</g>
		</g>
		<g>
			<path class="st5" d="M494.1,38.4c-0.1-2.9-1.4-5.7-3.5-7.7c-2.2-2-5.1-2.9-8-2.7L185.6,53.7c-5.5,0.5-9.9,5.1-9.9,10.6v596.7
				c0,5.9,5.1,10.2,11,10.2h310.9c2.9,0,5.6-0.9,7.6-3c2-2.1,3.1-4.7,3-7.6L494.1,38.4z"/>
			<g class="st6">
				<path class="st2" d="M234.5,83.2l-22.7,1.5c-2.5,0.2-3.8,2.5-3.8,5.1v544.3c0,2.7,0.6,6,3.1,6h23.6c2.5,0,4.6-2.7,4.6-5.5
					L239.1,88C239.1,85.3,237,83,234.5,83.2z"/>
				<path class="st2" d="M289.5,79.6l-23.7,1.6c-2.5,0.2-4.9,2.5-4.9,5.2l0.6,548.3c0,2.7,2.5,5.5,5,5.5h24c2.6,0,4.3-2.7,4.3-5.5
					l-0.9-550.2C293.7,81.7,292,79.4,289.5,79.6z"/>
				<path class="st2" d="M345.1,75.9l-24,1.6c-2.5,0.2-4,2.5-4,5.2l1.2,552c0,2.8,1.5,5.5,4.1,5.5h24.3c2.6,0,5.3-2.8,5.3-5.5
					l-1.5-553.9C350.4,78,347.7,75.7,345.1,75.9z"/>
				<path class="st2" d="M401.6,72.2l-24.3,1.6c-2.6,0.2-4.5,2.5-4.5,5.2l1.8,555.5c0,2.8,1.9,5.5,4.5,5.5h24.6c2.6,0,5-2.8,5-5.6
					l-2.1-557.5C406.5,74.4,404.2,72,401.6,72.2z"/>
				<path class="st2" d="M458.7,68.5l-24.6,1.6c-2.6,0.2-4.9,2.5-4.9,5.3l2.4,559.2c0,2.8,2.4,5.6,5,5.6h24.9c2.7,0,4.6-2.8,4.6-5.6
					l-2.8-561.1C463.3,70.6,461.4,68.3,458.7,68.5z"/>
			</g>
		</g>
		<g>
			<path class="st5" d="M848.4,114.1c-0.1-5.8-4.9-10.7-10.7-10.7h-220c-5.9,0-11,5.3-11,11.2v527.1c0,2.8,1.3,5.6,3.3,7.6
				c2,2,4.8,3.1,7.7,3.1l229.9-0.6c2.9,0,5.6-1.2,7.6-3.2c2-2,3.1-4.9,3.1-7.8L848.4,114.1z"/>
			<g class="st7">
				<g>
					<path class="st2" d="M680.7,124.4h-56.8c-1.7,0-1.4,2.9-1.4,4.7v10.3c0,1.8-0.3,4.5,1.4,4.5h56.8c1.7,0,2.8-2.7,2.8-4.5v-10.3
						C683.5,127.3,682.4,124.4,680.7,124.4z"/>
					<path class="st2" d="M756.8,124.4H700c-1.7,0-2.2,2.9-2.2,4.7v10.3c0,1.8,0.5,4.5,2.2,4.5h56.8c1.7,0,2.1-2.7,2.1-4.5v-10.3
						C758.9,127.3,758.5,124.4,756.8,124.4z"/>
					<path class="st2" d="M832.9,124.4H776c-1.7,0-4.2,2.9-4.2,4.7v10.3c0,1.8,2.5,4.5,4.2,4.5h56.8c1.7,0,3.9-2.7,3.9-4.5v-10.3
						C836.8,127.3,834.5,124.4,832.9,124.4z"/>
				</g>
				<g>
					<path class="st2" d="M680.7,168.6h-56.8c-1.7,0-1.4-0.6-1.4,1.2v10.3c0,1.8-0.3,5.4,1.4,5.4h56.8c1.7,0,2.8-3.6,2.8-5.4v-10.3
						C683.5,168,682.4,168.6,680.7,168.6z"/>
					<path class="st2" d="M756.8,168.6H700c-1.7,0-2.2-0.6-2.2,1.2v10.3c0,1.8,0.5,5.4,2.2,5.4h56.8c1.7,0,2.1-3.6,2.1-5.4v-10.3
						C758.9,168,758.5,168.6,756.8,168.6z"/>
					<path class="st2" d="M832.9,168.6H776c-1.7,0-4.2-0.6-4.2,1.2v10.3c0,1.8,2.5,5.4,4.2,5.4h56.8c1.7,0,3.9-3.6,3.9-5.4v-10.3
						C836.8,168,834.5,168.6,832.9,168.6z"/>
				</g>
				<g>
					<path class="st2" d="M680.7,207.6h-56.8c-1.7,0-1.4,1.1-1.4,2.9v10.3c0,1.8-0.3,3.7,1.4,3.7h56.8c1.7,0,2.8-1.9,2.8-3.7v-10.3
						C683.5,208.7,682.4,207.6,680.7,207.6z"/>
					<path class="st2" d="M756.8,207.6H700c-1.7,0-2.2,1.1-2.2,2.9v10.3c0,1.8,0.5,3.7,2.2,3.7h56.8c1.7,0,2.1-1.9,2.1-3.7v-10.3
						C758.9,208.7,758.5,207.6,756.8,207.6z"/>
					<path class="st2" d="M832.9,207.6H776c-1.7,0-4.2,1.1-4.2,2.9v10.3c0,1.8,2.5,3.7,4.2,3.7h56.8c1.7,0,3.9-1.9,3.9-3.7v-10.3
						C836.8,208.7,834.5,207.6,832.9,207.6z"/>
				</g>
				<g>
					<path class="st2" d="M680.7,249.1h-56.8c-1.7,0-1.4,0.2-1.4,2v10.3c0,1.8-0.3,4.6,1.4,4.6h56.8c1.7,0,2.8-2.8,2.8-4.6v-10.3
						C683.5,249.3,682.4,249.1,680.7,249.1z"/>
					<path class="st2" d="M756.8,249.1H700c-1.7,0-2.2,0.2-2.2,2v10.3c0,1.8,0.5,4.6,2.2,4.6h56.8c1.7,0,2.1-2.8,2.1-4.6v-10.3
						C758.9,249.3,758.5,249.1,756.8,249.1z"/>
					<path class="st2" d="M832.9,249.1H776c-1.7,0-4.2,0.2-4.2,2v10.3c0,1.8,2.5,4.6,4.2,4.6h56.8c1.7,0,3.9-2.8,3.9-4.6v-10.3
						C836.8,249.3,834.5,249.1,832.9,249.1z"/>
				</g>
				<g>
					<path class="st2" d="M680.7,288.1h-56.8c-1.7,0-1.4,1.9-1.4,3.7v10.3c0,1.8-0.3,2.9,1.4,2.9h56.8c1.7,0,2.8-1.1,2.8-2.9v-10.3
						C683.5,290,682.4,288.1,680.7,288.1z"/>
					<path class="st2" d="M756.8,288.1H700c-1.7,0-2.2,1.9-2.2,3.7v10.3c0,1.8,0.5,2.9,2.2,2.9h56.8c1.7,0,2.1-1.1,2.1-2.9v-10.3
						C758.9,290,758.5,288.1,756.8,288.1z"/>
					<path class="st2" d="M832.9,288.1H776c-1.7,0-4.2,1.9-4.2,3.7v10.3c0,1.8,2.5,2.9,4.2,2.9h56.8c1.7,0,3.9-1.1,3.9-2.9v-10.3
						C836.8,290,834.5,288.1,832.9,288.1z"/>
				</g>
				<g>
					<path class="st2" d="M680.7,329.7h-56.8c-1.7,0-1.4,1-1.4,2.8v10.3c0,1.8-0.3,3.8,1.4,3.8h56.8c1.7,0,2.8-1.9,2.8-3.8v-10.3
						C683.5,330.7,682.4,329.7,680.7,329.7z"/>
					<path class="st2" d="M756.8,329.7H700c-1.7,0-2.2,1-2.2,2.8v10.3c0,1.8,0.5,3.8,2.2,3.8h56.8c1.7,0,2.1-1.9,2.1-3.8v-10.3
						C758.9,330.7,758.5,329.7,756.8,329.7z"/>
					<path class="st2" d="M832.9,329.7H776c-1.7,0-4.2,1-4.2,2.8v10.3c0,1.8,2.5,3.8,4.2,3.8h56.8c1.7,0,3.9-1.9,3.9-3.8v-10.3
						C836.8,330.7,834.5,329.7,832.9,329.7z"/>
				</g>
				<g>
					<path class="st2" d="M680.7,368.6h-56.8c-1.7,0-1.4,2.7-1.4,4.6v10.3c0,1.8-0.3,4.6,1.4,4.6h56.8c1.7,0,2.8-2.8,2.8-4.6v-10.3
						C683.5,371.4,682.4,368.6,680.7,368.6z"/>
					<path class="st2" d="M756.8,368.6H700c-1.7,0-2.2,2.7-2.2,4.6v10.3c0,1.8,0.5,4.6,2.2,4.6h56.8c1.7,0,2.1-2.8,2.1-4.6v-10.3
						C758.9,371.4,758.5,368.6,756.8,368.6z"/>
					<path class="st2" d="M832.9,368.6H776c-1.7,0-4.2,2.7-4.2,4.6v10.3c0,1.8,2.5,4.6,4.2,4.6h56.8c1.7,0,3.9-2.8,3.9-4.6v-10.3
						C836.8,371.4,834.5,368.6,832.9,368.6z"/>
				</g>
				<g>
					<path class="st2" d="M680.7,410.2h-56.8c-1.7,0-1.4,1.9-1.4,3.7v10.3c0,1.8-0.3,5.5,1.4,5.5h56.8c1.7,0,2.8-3.7,2.8-5.5v-10.3
						C683.5,412.1,682.4,410.2,680.7,410.2z"/>
					<path class="st2" d="M756.8,410.2H700c-1.7,0-2.2,1.9-2.2,3.7v10.3c0,1.8,0.5,5.5,2.2,5.5h56.8c1.7,0,2.1-3.7,2.1-5.5v-10.3
						C758.9,412.1,758.5,410.2,756.8,410.2z"/>
					<path class="st2" d="M832.9,410.2H776c-1.7,0-4.2,1.9-4.2,3.7v10.3c0,1.8,2.5,5.5,4.2,5.5h56.8c1.7,0,3.9-3.7,3.9-5.5v-10.3
						C836.8,412.1,834.5,410.2,832.9,410.2z"/>
				</g>
				<g>
					<path class="st2" d="M680.7,450.5h-56.8c-1.7,0-1.4,2.3-1.4,4.1v10.3c0,1.8-0.3,3.8,1.4,3.8h56.8c1.7,0,2.8-2,2.8-3.8v-10.3
						C683.5,452.7,682.4,450.5,680.7,450.5z"/>
					<path class="st2" d="M756.8,450.5H700c-1.7,0-2.2,2.3-2.2,4.1v10.3c0,1.8,0.5,3.8,2.2,3.8h56.8c1.7,0,2.1-2,2.1-3.8v-10.3
						C758.9,452.7,758.5,450.5,756.8,450.5z"/>
					<path class="st2" d="M832.9,450.5H776c-1.7,0-4.2,2.3-4.2,4.1v10.3c0,1.8,2.5,3.8,4.2,3.8h56.8c1.7,0,3.9-2,3.9-3.8v-10.3
						C836.8,452.7,834.5,450.5,832.9,450.5z"/>
				</g>
				<g>
					<path class="st2" d="M680.7,493.3h-56.8c-1.7,0-1.4,0.1-1.4,1.9v10.3c0,1.8-0.3,4.7,1.4,4.7h56.8c1.7,0,2.8-2.9,2.8-4.7v-10.3
						C683.5,493.4,682.4,493.3,680.7,493.3z"/>
					<path class="st2" d="M756.8,493.3H700c-1.7,0-2.2,0.1-2.2,1.9v10.3c0,1.8,0.5,4.7,2.2,4.7h56.8c1.7,0,2.1-2.9,2.1-4.7v-10.3
						C758.9,493.4,758.5,493.3,756.8,493.3z"/>
					<path class="st2" d="M832.9,493.3H776c-1.7,0-4.2,0.1-4.2,1.9v10.3c0,1.8,2.5,4.7,4.2,4.7h56.8c1.7,0,3.9-2.9,3.9-4.7v-10.3
						C836.8,493.4,834.5,493.3,832.9,493.3z"/>
				</g>
				<g>
					<path class="st2" d="M680.7,534.9h-56.8c-1.7,0-1.4-0.8-1.4,1v10.3c0,1.8-0.3,3,1.4,3h56.8c1.7,0,2.8-1.2,2.8-3v-10.3
						C683.5,534.1,682.4,534.9,680.7,534.9z"/>
					<path class="st2" d="M756.8,534.9H700c-1.7,0-2.2-0.8-2.2,1v10.3c0,1.8,0.5,3,2.2,3h56.8c1.7,0,2.1-1.2,2.1-3v-10.3
						C758.9,534.1,758.5,534.9,756.8,534.9z"/>
					<path class="st2" d="M832.9,534.9H776c-1.7,0-4.2-0.8-4.2,1v10.3c0,1.8,2.5,3,4.2,3h56.8c1.7,0,3.9-1.2,3.9-3v-10.3
						C836.8,534.1,834.5,534.9,832.9,534.9z"/>
				</g>
				<g>
					<path class="st2" d="M680.7,573.9h-56.8c-1.7,0-1.4,0.9-1.4,2.7v10.3c0,1.8-0.3,3.9,1.4,3.9h56.8c1.7,0,2.8-2.1,2.8-3.9v-10.3
						C683.5,574.8,682.4,573.9,680.7,573.9z"/>
					<path class="st2" d="M756.8,573.9H700c-1.7,0-2.2,0.9-2.2,2.7v10.3c0,1.8,0.5,3.9,2.2,3.9h56.8c1.7,0,2.1-2.1,2.1-3.9v-10.3
						C758.9,574.8,758.5,573.9,756.8,573.9z"/>
					<path class="st2" d="M832.9,573.9H776c-1.7,0-4.2,0.9-4.2,2.7v10.3c0,1.8,2.5,3.9,4.2,3.9h56.8c1.7,0,3.9-2.1,3.9-3.9v-10.3
						C836.8,574.8,834.5,573.9,832.9,573.9z"/>
				</g>
			</g>
		</g>
		<g>
			<path class="st4" d="M239.5,135.3c0-2.9-1.2-5.6-3.3-7.6c-2.1-2-4.9-3-7.8-2.9L9.7,133.6c-3.8,0.2-6.7,3.3-6.6,7l11.1,467.5
				l221.1-2.7c2.8,0,5.5-1.2,7.5-3.2c2-2,3.1-4.8,3-7.6L239.5,135.3z"/>
			<g class="st7">
				<g>
					<polygon class="st2" points="63.4,221.2 28.2,221.1 27.8,160.8 63.1,160.8 					"/>
					<polygon class="st2" points="113.9,221.1 78.8,221 78.5,160.8 113.7,160.8 					"/>
					<polygon class="st2" points="167,221 132.1,220.8 131.9,160.8 166.9,160.8 					"/>
					<polygon class="st2" points="219.8,221.3 184.4,220.9 183.7,160.8 219.8,160.8 					"/>
				</g>
				<g>
					<polygon class="st2" points="63.9,306.9 28.8,307.1 28.4,247.4 63.5,247.3 					"/>
					<polygon class="st2" points="114.2,306.6 79.3,306.8 79,247.2 114,247.1 					"/>
					<polygon class="st2" points="167.2,306.3 132.4,306.5 132.2,247 167.1,246.9 					"/>
					<polygon class="st2" points="219.8,306.1 184.5,306.2 184.7,246.9 219.8,246.8 					"/>
				</g>
				<g>
					<polygon class="st2" points="64.4,394.4 29.4,394.7 29,335.4 64,335.2 					"/>
					<polygon class="st2" points="114.6,394 79.7,394.3 79.4,335.1 114.3,334.9 					"/>
					<polygon class="st2" points="167.4,393.6 132.6,393.9 132.5,334.8 167.2,334.5 					"/>
					<polygon class="st2" points="219.8,393.1 184.6,393.4 184.8,334.4 219.8,334.2 					"/>
				</g>
				<g>
					<polygon class="st2" points="64.8,480 30,480.5 29.6,422.9 64.5,422.6 					"/>
					<polygon class="st2" points="114.9,479.5 80.2,479.9 79.9,422.4 114.7,422.1 					"/>
					<polygon class="st2" points="167.5,478.8 132.9,479.2 132.7,421.9 167.4,421.6 					"/>
					<polygon class="st2" points="219.8,478.2 184.7,478.6 184.9,421.4 219.8,421.1 					"/>
				</g>
				<g>
					<polygon class="st2" points="65.3,566.5 30.6,567 30.2,509.8 65,509.4 					"/>
					<polygon class="st2" points="115.2,565.8 80.6,566.3 80.3,509.2 115,508.7 					"/>
					<polygon class="st2" points="167.7,565 133.2,565.5 133,508.5 167.6,508.1 					"/>
					<polygon class="st2" points="219.8,564.2 184.8,564.7 185,507.9 219.8,507.4 					"/>
				</g>
			</g>
		</g>
		<g>
			<path class="st4" d="M680.6,182.3c0-2.9-1.2-5.6-3.3-7.5c-2.1-2-4.8-3-7.7-2.9l-231.2,7.4c-5.9,0.2-10.5,5.1-10.3,11l11.4,382.9
				c0.2,5.8,5,10.4,10.8,10.4l226.6-2.2c2.8,0,5.6-1.2,7.5-3.2c2-2,3.1-4.8,3-7.6L680.6,182.3z"/>
			<g class="st8">
				<path class="st2" d="M656.5,201.1H450.6c-2,0-3.6,1-3.6,2.9l0.2,18c0,1.9,1.7,4,3.7,4l206.5,0.2c2,0,3.6-2.2,3.6-4.1l-0.6-17.9
					C660.3,202.1,658.6,201.1,656.5,201.1z"/>
				<path class="st2" d="M657.9,239.7l-206.8-0.3c-2,0-3.6,1.9-3.6,3.8l0.2,18.4c0,1.9,1.7,3.7,3.7,3.8l207.4,0.6
					c2.1,0,3.7-1.8,3.6-3.8l-0.6-18.5C661.6,241.7,659.9,239.7,657.9,239.7z"/>
				<path class="st2" d="M659.3,281.2l-207.7-0.7c-2,0-3.6,0.9-3.6,2.9l0.2,18.5c0,1.9,1.7,3.4,3.7,3.4l208.3,0.9
					c2.1,0,3.7-1.5,3.6-3.4l-0.6-18.7C663,282.1,661.3,281.2,659.3,281.2z"/>
				<path class="st2" d="M660.6,321.5L452,320.5c-2,0-3.7,1.3-3.6,3.3l0.2,18.7c0,2,1.7,3.1,3.7,3.1l209.2,1.3
					c2.1,0,3.7-1.1,3.6-3.1l-0.6-18.9C664.4,322.9,662.7,321.6,660.6,321.5z"/>
				<path class="st2" d="M662,362.3l-209.6-1.4c-2,0-3.7,1.7-3.7,3.7l0.2,18.9c0,2,1.7,4.1,3.7,4.1l210.2,1.7c2.1,0,3.7-2.1,3.6-4.1
					l-0.6-19C665.8,364,664.1,362.3,662,362.3z"/>
				<path class="st2" d="M663.4,403.4l-210.5-1.8c-2,0-3.7,2.1-3.7,4.1l0.2,19c0,2,1.7,3.8,3.8,3.8l211.1,2c2.1,0,3.7-1.7,3.7-3.8
					l-0.7-19.2C667.2,405.6,665.5,403.4,663.4,403.4z"/>
				<path class="st2" d="M664.8,446.3l-211.5-2.2c-2.1,0-3.7,1.1-3.7,3.1l0.2,19.2c0,2,1.7,3.4,3.8,3.4l212.1,2.4
					c2.1,0,3.8-1.4,3.7-3.4l-0.7-19.4C668.6,447.4,666.9,446.3,664.8,446.3z"/>
				<path class="st2" d="M666.2,488.1l-212.4-2.6c-2.1,0-3.7,1.5-3.7,3.5l0.2,19.4c0,2,1.7,3.1,3.8,3.1l213,2.8c2.1,0,3.8-1,3.7-3
					l-0.7-19.6C670.1,489.7,668.3,488.2,666.2,488.1z"/>
				<path class="st2" d="M667.6,530.4l-213.4-3c-2.1,0-3.7,1.9-3.7,3.9l0.2,19.5c0,2,1.7,4.1,3.8,4.2l214,3.2c2.1,0,3.8-2,3.7-4.1
					l-0.7-19.7C671.5,532.3,669.8,530.4,667.6,530.4z"/>
			</g>
		</g>
		<g>
			<g>
				<linearGradient id="SVGID_2_" gradientUnits="userSpaceOnUse" x1="529.0895" y1="1007.6049" x2="529.0895" y2="1313.4996">
					<stop  offset="0" style="stop-color:#09005D"/>
					<stop  offset="1" style="stop-color:#1A0F91"/>
				</linearGradient>
				<polygon class="st9" points="425.7,879.9 404.1,1028.5 654,1028.5 621.5,879.9 				"/>
				<linearGradient id="SVGID_3_" gradientUnits="userSpaceOnUse" x1="499.0552" y1="-29.8759" x2="502.952" y2="517.6176">
					<stop  offset="0" style="stop-color:#09005D"/>
					<stop  offset="0.1925" style="stop-color:#0C0367"/>
					<stop  offset="1" style="stop-color:#1A0F91"/>
				</linearGradient>
				<path class="st10" d="M5.9,404v442.4c0,36.4,29,66.2,65.4,67.1c161.6,4.2,726.7,14.3,880.5,12c26.4-0.4,47.9-21.5,48.6-48
					c3-102.8,7.8-349.9-10-464.7c-3.8-24.2-24.1-42.2-48.6-43c-135.4-4.3-734.5-18.1-888.2-14.6C27.1,355.8,5.9,377.4,5.9,404z"/>
				<path class="st11" d="M33.7,401.8v420.3c0,21.2,17.1,38.6,38.3,38.9l857.7,10.6c21.1,0.3,38.3-16.6,38.4-37.7l1.4-416.6
					c0.1-15.1-11.9-27.4-27-27.8L64.4,371.8C47.6,371.4,33.7,385,33.7,401.8z"/>
				<path class="st5" d="M974.6,888.8C974.6,888.8,974.6,888.8,974.6,888.8l-940.9-16c-0.7,0-1.2-0.6-1.2-1.2c0-0.7,0.6-1.2,1.2-1.2
					l940.9,16c0.7,0,1.2,0.6,1.2,1.2C975.8,888.3,975.2,888.8,974.6,888.8z"/>
				<g>
					<path class="st5" d="M513.4,908.4c-6.1,0-11-4.9-11-11s4.9-11,11-11c6.1,0,11,4.9,11,11S519.5,908.4,513.4,908.4z M513.4,888.8
						c-4.7,0-8.6,3.9-8.6,8.6s3.9,8.6,8.6,8.6s8.6-3.9,8.6-8.6S518.2,888.8,513.4,888.8z"/>
				</g>
				<linearGradient id="SVGID_4_" gradientUnits="userSpaceOnUse" x1="524.996" y1="867.322" x2="524.996" y2="1099.1786">
					<stop  offset="0" style="stop-color:#09005D"/>
					<stop  offset="1" style="stop-color:#1A0F91"/>
				</linearGradient>
				<path class="st12" d="M707.9,1068H342.1c-9.9,0-17.4-7.1-15.5-14.7l4.7-18.6c1.4-5.6,7.6-9.7,14.8-9.9l352.6-11
					c7.6-0.2,14.4,3.8,16,9.6l8.5,29.6C725.4,1060.7,718,1068,707.9,1068z"/>
				<path class="st5" d="M539,1029.9c-0.6,0-1.2-0.5-1.2-1.2c0-0.7,0.5-1.2,1.2-1.2l15.1-0.2c0.6,0,1.2,0.5,1.2,1.2
					c0,0.7-0.5,1.2-1.2,1.2L539,1029.9C539,1029.9,539,1029.9,539,1029.9z"/>
				<path class="st5" d="M340.2,1057.8c-0.1,0-0.1,0-0.2,0c-0.6-0.1-1.1-0.7-1-1.4l2.2-13.5c1.2-7.3,7.3-12.6,14.7-12.7l160.2-2.3
					c0,0,0,0,0,0c0.6,0,1.2,0.5,1.2,1.2c0,0.7-0.5,1.2-1.2,1.2l-160.2,2.3c-6.2,0.1-11.4,4.6-12.4,10.7l-2.2,13.5
					C341.3,1057.4,340.8,1057.8,340.2,1057.8z"/>
			</g>
		</g>
		<g>
			<g>
				<linearGradient id="SVGID_5_" gradientUnits="userSpaceOnUse" x1="218.1636" y1="176.7206" x2="274.0197" y2="578.1064">
					<stop  offset="0" style="stop-color:#09005D"/>
					<stop  offset="1" style="stop-color:#1A0F91"/>
				</linearGradient>
				<path class="st13" d="M34.7,336.1l-1.6,24.8c-0.5,8.3,4.3,16,12,19.2l18.2,7.6c4.9,2,8.5,6.4,9.6,11.6
					c2.9,13.1,7.2,25.7,12.9,37.5c2.3,4.8,2.2,10.4-0.5,15.1L75.5,469c-4.1,7.2-3.2,16.3,2.3,22.5l16.4,18.6
					c5.5,6.2,14.3,8.3,22,5.1l18.2-7.5c4.9-2,10.5-1.5,15,1.4c11.1,7.1,23,13,35.6,17.5c5,1.8,8.9,5.8,10.3,11l5.2,19
					c2.2,8,9.3,13.7,17.6,14.3l24.8,1.6c8.3,0.5,16-4.3,19.2-12l7.6-18.2c2-4.9,6.4-8.5,11.6-9.6c13.1-2.9,25.7-7.2,37.5-12.9
					c4.8-2.3,10.4-2.2,15.1,0.5l17.2,9.7c7.2,4.1,16.3,3.2,22.5-2.3l18.6-16.4c6.2-5.5,8.3-14.3,5.1-22L390,471
					c-2-4.9-1.5-10.5,1.4-15c7.1-11.1,13-23,17.5-35.6c1.8-5,5.8-8.9,11-10.3l19-5.2c8-2.2,13.7-9.3,14.3-17.6l1.6-24.8
					c0.5-8.3-4.3-16-12-19.2l-18.2-7.6c-4.9-2-8.5-6.4-9.6-11.6c-2.9-13.1-7.2-25.7-12.9-37.5c-2.3-4.8-2.2-10.4,0.5-15.1l9.7-17.2
					c4.1-7.2,3.2-16.3-2.3-22.5l-16.4-18.6c-5.5-6.2-14.3-8.3-22-5.1l-18.2,7.5c-4.9,2-10.5,1.5-15-1.4c-11.1-7.1-23-13-35.6-17.5
					c-5-1.8-8.9-5.8-10.3-11l-5.2-19c-2.2-8-9.3-13.7-17.6-14.3l-24.8-1.6c-8.3-0.5-16,4.3-19.2,12l-7.6,18.2
					c-2,4.9-6.4,8.5-11.6,9.6c-13.1,2.9-25.7,7.2-37.5,12.9c-4.8,2.3-10.4,2.2-15.1-0.5l-17.2-9.7c-7.2-4.1-16.3-3.2-22.5,2.3
					L95.4,212c-6.2,5.5-8.3,14.3-5.1,22l7.5,18.2c2,4.9,1.5,10.5-1.4,15c-7.1,11.1-13,23-17.5,35.6c-1.8,5-5.8,8.9-11,10.3l-19,5.2
					C40.9,320.7,35.2,327.8,34.7,336.1z M101.4,338.1c13-78.7,87.3-132,166-119c78.7,13,132,87.3,119,166c-13,78.7-87.3,132-166,119
					C141.7,491.1,88.4,416.8,101.4,338.1z"/>
			</g>
			<g>
				<defs>
					<circle id="SVGID_6_" cx="244.9" cy="361.8" r="145.1"/>
				</defs>
				<clipPath id="SVGID_7_">
					<use xlink:href="#SVGID_6_"  style="overflow:visible;"/>
				</clipPath>
				<g class="st14">
					<linearGradient id="SVGID_8_" gradientUnits="userSpaceOnUse" x1="219.455" y1="451.6089" x2="700.1473" y2="443.5974">
						<stop  offset="0" style="stop-color:#FEBBBA"/>
						<stop  offset="1" style="stop-color:#FF928E"/>
					</linearGradient>
					<path class="st15" d="M280.3,423.1c0,0,12.5,63.8,17,63.8c4.5,0,88.5-10.1,88.5-10.1v-18.2l-66.4,2.4l-16-47.4L280.3,423.1z"/>
					<linearGradient id="SVGID_9_" gradientUnits="userSpaceOnUse" x1="432.9461" y1="120.4148" x2="366.7014" y2="213.9368">
						<stop  offset="0" style="stop-color:#FF928E"/>
						<stop  offset="1" style="stop-color:#FE7062"/>
					</linearGradient>
					<path class="st16" d="M264.5,492.7H152.6l6.8-79.8c0,0-8.4-60.1,29.8-66.7c22.5-6.1,22.5-6.2,22.5-6.2s28.8-4.5,52.8,6.1
						c24.1,10.6,43.9,74.4,43.9,74.4L279.7,432l-7.3-23.2L264.5,492.7z"/>
					
						<linearGradient id="SVGID_10_" gradientUnits="userSpaceOnUse" x1="137.1427" y1="968.9706" x2="101.3709" y2="1123.556" gradientTransform="matrix(0.9877 0.1565 -0.1565 0.9877 261.876 -684.5447)">
						<stop  offset="0" style="stop-color:#FEBBBA"/>
						<stop  offset="1" style="stop-color:#FF928E"/>
					</linearGradient>
					<path class="st17" d="M217.1,301.6l-11.4,43.8c0,0,23.8,11.5,44,1.5l-6.4-42.4L217.1,301.6z"/>
					
						<linearGradient id="SVGID_11_" gradientUnits="userSpaceOnUse" x1="449.5584" y1="1330.2253" x2="377.0609" y2="1385.697" gradientTransform="matrix(0.9382 0.346 -0.346 0.9382 302.8196 -1112.275)">
						<stop  offset="0" style="stop-color:#FEBBBA"/>
						<stop  offset="1" style="stop-color:#FF928E"/>
					</linearGradient>
					<path class="st18" d="M270.7,266.3c0,0,1.8,31.7-2.7,46.4c-4.5,14.6-4.8,25.1-22.5,21.9c-17.7-3.2-28.6-16.6-30.9-33.7
						c0,0-3.7-26.4,2.2-34.4C222.9,258.3,270.7,266.3,270.7,266.3z"/>
					
						<linearGradient id="SVGID_12_" gradientUnits="userSpaceOnUse" x1="398.5237" y1="1286.3041" x2="466.0431" y2="1373.2351" gradientTransform="matrix(0.9382 0.346 -0.346 0.9382 302.8196 -1112.275)">
						<stop  offset="0" style="stop-color:#09005D"/>
						<stop  offset="1" style="stop-color:#1A0F91"/>
					</linearGradient>
					<path class="st19" d="M224.1,292.6l1.1-0.1c1.4-0.1,2.4-1.3,2.3-2.7c-0.7-5.4-1.4-17.4,5.4-17.7c8.7-0.3,41.1,4.6,51.5-3.6
						c10-8,9.4-23.2,2.5-30.1c-0.5-0.5-1.2-0.5-1.7-0.1l-1.2,1.1c-0.8,0.7-2.1,0.1-2-1c0.1-1-1.1-1.7-1.9-1
						c-3.2,2.5-10.5,5.6-25.8,3c-21.9-3.8-38.4-0.5-44,13.5c-0.4,0.9-1.5,1-2.1,0.3c-1.2-1.5-3.4-2.8-7.7-1.3
						c-7.4,2.7-9.6,15.8-1,30.4c0.4,0.7,0.1,1.6-0.7,1.8c-2.8,0.6-7.4,2.9-0.4,10.7c7.2,8.1,14,10.1,16.7,10.6
						c0.7,0.1,1.3-0.3,1.4-1l1.8-13.4c0.1-0.8,0.9-1.2,1.6-1L224.1,292.6z"/>
					
						<linearGradient id="SVGID_13_" gradientUnits="userSpaceOnUse" x1="440.566" y1="1318.4725" x2="368.0686" y2="1373.9442" gradientTransform="matrix(0.9382 0.346 -0.346 0.9382 302.8196 -1112.275)">
						<stop  offset="0" style="stop-color:#FEBBBA"/>
						<stop  offset="1" style="stop-color:#FF928E"/>
					</linearGradient>
					<path class="st20" d="M223.7,295.4c0,0,1.9-19.1-7.7-17.1c-9.6,2-3.2,21.1,2.9,24L223.7,295.4z"/>
					<g>
						<g>
							<g>
								<linearGradient id="SVGID_14_" gradientUnits="userSpaceOnUse" x1="213.557" y1="320.5005" x2="244.4137" y2="299.5808">
									<stop  offset="0" style="stop-color:#4F52FF"/>
									<stop  offset="1" style="stop-color:#4042E2"/>
								</linearGradient>
								<path class="st21" d="M247.5,319.8c-20.5-1.9-28.7-24.9-28.7-25.1l1.5-0.5c0.1,0.2,7.9,22.2,27.4,24.1L247.5,319.8z"/>
							</g>
							<path class="st22" d="M253.4,321.3h-7.8c-1,0-1.9-0.9-1.9-1.9v-1.5c0-1,0.9-1.9,1.9-1.9h7.8c1,0,1.9,0.9,1.9,1.9v1.5
								C255.3,320.5,254.4,321.3,253.4,321.3z"/>
						</g>
						<g>
							<linearGradient id="SVGID_15_" gradientUnits="userSpaceOnUse" x1="265.7927" y1="177.9878" x2="403.4852" y2="-206.511">
								<stop  offset="0" style="stop-color:#4F52FF"/>
								<stop  offset="1" style="stop-color:#4042E2"/>
							</linearGradient>
							<path class="st23" d="M223.8,271.8c0,0,12.9-31.1,33.6-30.9c0,0-5.2-3.5-11.7-1.6c-6.5,1.9-24.4,15.2-27.1,32.5
								C222.5,273.8,223.8,271.8,223.8,271.8z"/>
							<linearGradient id="SVGID_16_" gradientUnits="userSpaceOnUse" x1="250.4746" y1="250.4103" x2="200.6802" y2="307.5656">
								<stop  offset="0" style="stop-color:#4F52FF"/>
								<stop  offset="1" style="stop-color:#4042E2"/>
							</linearGradient>
							<path class="st24" d="M220.7,269.3c-11.5,0.3-12.6,14.6-12.6,14.6c-2.6,10.1-0.4,15.6,3,18.7c2.3,2.1,5.6,2.8,8.6,1.9
								c3-0.9,5.3-3.3,6-6.4c0.7-2.7,1.4-5.3,1.7-6.2C228.4,289.7,232.2,269,220.7,269.3z"/>
						</g>
						<linearGradient id="SVGID_17_" gradientUnits="userSpaceOnUse" x1="260.3452" y1="224.3008" x2="374.6556" y2="58.031">
							<stop  offset="0" style="stop-color:#4F52FF"/>
							<stop  offset="1" style="stop-color:#4042E2"/>
						</linearGradient>
						<path class="st25" d="M221.2,273c-2.2-0.8-4.7,0-6,2c-9.3,14.3-2.8,25.7,1.1,26.6c4.2,0.9,7.6-19.4,7.6-24.7
							C223.8,274.6,222.6,273.5,221.2,273z"/>
					</g>
					<linearGradient id="SVGID_18_" gradientUnits="userSpaceOnUse" x1="350.1903" y1="495.8804" x2="-88.0994" y2="500.8123">
						<stop  offset="0" style="stop-color:#4F52FF"/>
						<stop  offset="1" style="stop-color:#4042E2"/>
					</linearGradient>
					<path class="st26" d="M373.2,486.2l-287.2,2.4c-1.2,0-2.2,2.5-2.4,5.6l-0.4,9.4c-0.1,3.1,0.7,5.6,1.9,5.6l288.7-4.2
						c1,0,1.7-2.3,1.6-5.1l-0.3-8.6C375.1,488.5,374.2,486.2,373.2,486.2z"/>
					<linearGradient id="SVGID_19_" gradientUnits="userSpaceOnUse" x1="274.8613" y1="478.2497" x2="311.0475" y2="478.2497">
						<stop  offset="0" style="stop-color:#09005D"/>
						<stop  offset="1" style="stop-color:#1A0F91"/>
					</linearGradient>
					<path class="st27" d="M275,486.6H311c0,0-8.2-17.6-23.2-16.7C272.9,470.8,275,486.6,275,486.6z"/>
					<linearGradient id="SVGID_20_" gradientUnits="userSpaceOnUse" x1="102.3963" y1="458.7025" x2="686.9487" y2="448.9599">
						<stop  offset="0" style="stop-color:#FEBBBA"/>
						<stop  offset="1" style="stop-color:#FF928E"/>
					</linearGradient>
					<path class="st28" d="M176.6,437.4l25.1-11.6l22.2,39c0,0,62.8-9.8,73.9,2.1c11.2,11.9,5.9,11.7,4.5,11.7c-1.4,0-7.8-7-7.8-7
						s5.7,8.5,2.6,8.9c-3,0.4-10.5-7.7-10.5-7.7s6.1,10.6,2.4,9.4c-3.7-1.2-6.6-7-6.6-7s4.9,6.8,1.6,7.1c-3.3,0.3-8.4-5.6-8.4-5.6
						s-7.8,3.5-12.2,3.5c-4.4,0-49.2,11.2-57.4,6.5C198,482.2,176.6,437.4,176.6,437.4z"/>
					<g>
						<linearGradient id="SVGID_21_" gradientUnits="userSpaceOnUse" x1="239.7938" y1="276.5418" x2="167.0508" y2="499.9667">
							<stop  offset="0" style="stop-color:#E1473D"/>
							<stop  offset="1" style="stop-color:#E9605A"/>
						</linearGradient>
						<path class="st29" d="M201.7,426.4c-0.2,0-0.3-0.1-0.4-0.2c-0.2-0.2-0.1-0.6,0.1-0.7l4.6-3.5l-14.9-41.1
							c-0.1-0.3,0-0.6,0.3-0.7c0.3-0.1,0.6,0,0.7,0.3l15,41.5c0.1,0.2,0,0.5-0.2,0.6l-4.9,3.7C201.9,426.4,201.8,426.4,201.7,426.4z
							"/>
					</g>
					<g>
						<linearGradient id="SVGID_22_" gradientUnits="userSpaceOnUse" x1="218.815" y1="269.7119" x2="146.0719" y2="493.1371">
							<stop  offset="0" style="stop-color:#E1473D"/>
							<stop  offset="1" style="stop-color:#E9605A"/>
						</linearGradient>
						<path class="st30" d="M174.2,435.8c-0.2,0-0.3-0.1-0.4-0.2l-12.6-18.5c-0.2-0.2-0.1-0.6,0.1-0.7c0.2-0.2,0.6-0.1,0.7,0.1
							l12.6,18.5c0.2,0.2,0.1,0.6-0.1,0.7C174.4,435.8,174.3,435.8,174.2,435.8z"/>
					</g>
				</g>
			</g>
		</g>
		<g>
			<g>
				<g>
					<linearGradient id="SVGID_23_" gradientUnits="userSpaceOnUse" x1="89.0884" y1="645.8846" x2="370.4573" y2="645.8846">
						<stop  offset="0" style="stop-color:#4F52FF"/>
						<stop  offset="1" style="stop-color:#4042E2"/>
					</linearGradient>
					<path class="st31" d="M354.3,589.5H105.4c-4.5,0-8.8,2.2-11.9,6.3c-3.1,4.1-4.6,9.5-4.3,15l4.4,73.1
						c0.6,10.7,8.1,18.8,16.8,18.4l244.5-10.8c8.7-0.4,15.6-9.2,15.6-19.9v-62.3C370.5,598.2,363.3,589.5,354.3,589.5z"/>
					<g>
						<linearGradient id="SVGID_24_" gradientUnits="userSpaceOnUse" x1="124.7032" y1="588.6392" x2="122.1053" y2="674.3721">
							<stop  offset="0" style="stop-color:#FEBBBA"/>
							<stop  offset="1" style="stop-color:#FF928E"/>
						</linearGradient>
						<path class="st32" d="M135.4,678.7l-10-4.3c-0.8-0.3-1.7-0.3-2.4,0.2l-9.2,5.8c-1.8,1.1-4.1-0.3-3.9-2.4l1-10.8
							c0.1-0.8-0.3-1.7-0.9-2.2l-8.3-7c-1.6-1.4-1-4,1.1-4.5l10.6-2.4c0.8-0.2,1.5-0.8,1.8-1.5l4.1-10.1c0.8-2,3.5-2.2,4.6-0.4
							l5.5,9.4c0.4,0.7,1.2,1.2,2,1.3l10.9,0.7c2.1,0.1,3.2,2.7,1.8,4.3l-7.2,8.2c-0.6,0.6-0.8,1.5-0.6,2.3l2.7,10.6
							C139.4,677.8,137.4,679.5,135.4,678.7z"/>
					</g>
					<g>
						<linearGradient id="SVGID_25_" gradientUnits="userSpaceOnUse" x1="176.8607" y1="590.22" x2="174.2627" y2="675.9529">
							<stop  offset="0" style="stop-color:#FEBBBA"/>
							<stop  offset="1" style="stop-color:#FF928E"/>
						</linearGradient>
						<path class="st33" d="M187.6,678.7l-10-4.3c-0.8-0.3-1.7-0.3-2.4,0.2l-9.2,5.8c-1.8,1.1-4.1-0.3-3.9-2.4l1-10.8
							c0.1-0.8-0.3-1.7-0.9-2.2l-8.3-7c-1.6-1.4-1-4,1.1-4.5l10.6-2.4c0.8-0.2,1.5-0.8,1.8-1.5l4.1-10.1c0.8-2,3.5-2.2,4.6-0.4
							l5.5,9.4c0.4,0.7,1.2,1.2,2,1.3l10.9,0.7c2.1,0.1,3.2,2.7,1.8,4.3l-7.2,8.2c-0.6,0.6-0.8,1.5-0.6,2.3l2.7,10.6
							C191.7,677.8,189.6,679.5,187.6,678.7z"/>
					</g>
					<g>
						<linearGradient id="SVGID_26_" gradientUnits="userSpaceOnUse" x1="232.3898" y1="591.9028" x2="229.7918" y2="677.6357">
							<stop  offset="0" style="stop-color:#FEBBBA"/>
							<stop  offset="1" style="stop-color:#FF928E"/>
						</linearGradient>
						<path class="st34" d="M243.2,678.7l-10-4.3c-0.8-0.3-1.7-0.3-2.4,0.2l-9.2,5.8c-1.8,1.1-4.1-0.3-3.9-2.4l1-10.8
							c0.1-0.8-0.3-1.7-0.9-2.2l-8.3-7c-1.6-1.4-1-4,1.1-4.5l10.6-2.4c0.8-0.2,1.5-0.8,1.8-1.5l4.1-10.1c0.8-2,3.5-2.2,4.6-0.4
							l5.5,9.4c0.4,0.7,1.2,1.2,2,1.3l10.9,0.7c2.1,0.1,3.2,2.7,1.8,4.3l-7.2,8.2c-0.6,0.6-0.8,1.5-0.6,2.3l2.7,10.6
							C247.2,677.8,245.2,679.5,243.2,678.7z"/>
					</g>
					<g>
						<linearGradient id="SVGID_27_" gradientUnits="userSpaceOnUse" x1="286.0901" y1="593.5298" x2="283.4922" y2="679.2628">
							<stop  offset="0" style="stop-color:#FEBBBA"/>
							<stop  offset="1" style="stop-color:#FF928E"/>
						</linearGradient>
						<path class="st35" d="M297,678.7l-10-4.3c-0.8-0.3-1.7-0.3-2.4,0.2l-9.2,5.8c-1.8,1.1-4.1-0.3-3.9-2.4l1-10.8
							c0.1-0.8-0.3-1.7-0.9-2.2l-8.3-7c-1.6-1.4-1-4,1.1-4.5l10.6-2.4c0.8-0.2,1.5-0.8,1.8-1.5l4.1-10.1c0.8-2,3.5-2.2,4.6-0.4
							l5.5,9.4c0.4,0.7,1.2,1.2,2,1.3l10.9,0.7c2.1,0.1,3.2,2.7,1.8,4.3l-7.2,8.2c-0.6,0.6-0.8,1.5-0.6,2.3l2.7,10.6
							C301,677.8,298.9,679.5,297,678.7z"/>
					</g>
					<g>
						<linearGradient id="SVGID_28_" gradientUnits="userSpaceOnUse" x1="341.1931" y1="595.1997" x2="338.5952" y2="680.9326">
							<stop  offset="0" style="stop-color:#FEBBBA"/>
							<stop  offset="1" style="stop-color:#FF928E"/>
						</linearGradient>
						<path class="st36" d="M352.1,678.7l-10-4.3c-0.8-0.3-1.7-0.3-2.4,0.2l-9.2,5.8c-1.8,1.1-4.1-0.3-3.9-2.4l1-10.8
							c0.1-0.8-0.3-1.7-0.9-2.2l-8.3-7c-1.6-1.4-1-4,1.1-4.5l10.6-2.4c0.8-0.2,1.5-0.8,1.8-1.5l4.1-10.1c0.8-2,3.5-2.2,4.6-0.4
							l5.5,9.4c0.4,0.7,1.2,1.2,2,1.3l10.9,0.7c2.1,0.1,3.2,2.7,1.8,4.3l-7.2,8.2c-0.6,0.6-0.8,1.5-0.6,2.3l2.7,10.6
							C356.1,677.8,354.1,679.5,352.1,678.7z"/>
					</g>
					<path class="st37" d="M349.7,615.3c0,4.7-3.4,7.9-7.6,7.9H137.7c-4.2,0-7.6-3.3-7.6-7.9v-0.4c0-4.7,3.4-8.5,7.6-8.5h204.3
						c4.2,0,7.6,3.8,7.6,8.5V615.3z"/>
				</g>
			</g>
		</g>
		<g>
			<g>
				<g class="st38">
					<path class="st2" d="M908.3,490.2H548.4c-6.6,0-12-5.4-12-12v-59.2c0-6.6,5.4-12,12-12h359.9c6.6,0,12,5.4,12,12v59.2
						C920.3,484.8,914.9,490.2,908.3,490.2z"/>
					<polygon class="st2" points="834.8,487.3 852.7,515.7 869.2,485.9 					"/>
				</g>
				
					<ellipse transform="matrix(0.7071 -0.7071 0.7071 0.7071 -146.0921 548.0859)" class="st2" cx="588.6" cy="450.4" rx="33.4" ry="33.4"/>
				<g>
					<linearGradient id="SVGID_29_" gradientUnits="userSpaceOnUse" x1="605.1357" y1="227.979" x2="619.4245" y2="48.7194">
						<stop  offset="0" style="stop-color:#4F52FF"/>
						<stop  offset="1" style="stop-color:#4042E2"/>
					</linearGradient>
					<path class="st39" d="M598.7,437.7c0,5.7-4.6,11.8-10.2,11.6c-5.7-0.2-10.3-6.5-10.3-12.3c0-5.8,4.6-9.7,10.3-9.5
						C594.1,427.8,598.7,432,598.7,437.7z"/>
					<linearGradient id="SVGID_30_" gradientUnits="userSpaceOnUse" x1="606.8853" y1="228.1187" x2="621.174" y2="48.8594">
						<stop  offset="0" style="stop-color:#4F52FF"/>
						<stop  offset="1" style="stop-color:#4042E2"/>
					</linearGradient>
					<path class="st40" d="M575.7,471.1l25,0.6c2.6,0.1,4.9-1.6,5.7-4.1l1.3-4.2c1-3.1-0.6-6.5-3.6-7.7c-10.1-4.1-20.7-3.9-31.5-0.5
						c-3.1,0.9-4.8,4.2-3.9,7.3l1,3.9C570.5,469.1,572.9,471,575.7,471.1z"/>
				</g>
			</g>
			<g>
				<g class="st38">
					<path class="st2" d="M914.8,720.8H554.9c-6.6,0-12-5.4-12-12v-59.2c0-6.6,5.4-12,12-12h359.9c6.6,0,12,5.4,12,12v59.2
						C926.8,715.4,921.4,720.8,914.8,720.8z"/>
					<polygon class="st2" points="841.3,717.9 859.2,746.3 875.7,716.5 					"/>
				</g>
				
					<ellipse transform="matrix(0.7071 -0.7071 0.7071 0.7071 -307.2475 620.2199)" class="st2" cx="595" cy="681" rx="33.4" ry="33.4"/>
				<g>
					<linearGradient id="SVGID_31_" gradientUnits="userSpaceOnUse" x1="629.8555" y1="229.9488" x2="644.1442" y2="50.6891">
						<stop  offset="0" style="stop-color:#4F52FF"/>
						<stop  offset="1" style="stop-color:#4042E2"/>
					</linearGradient>
					<path class="st41" d="M605.2,668.3c0,5.7-4.6,11.8-10.2,11.6c-5.7-0.2-10.3-6.5-10.3-12.3c0-5.8,4.6-9.7,10.3-9.5
						C600.6,658.4,605.2,662.6,605.2,668.3z"/>
					<linearGradient id="SVGID_32_" gradientUnits="userSpaceOnUse" x1="631.6049" y1="230.0894" x2="645.8936" y2="50.8301">
						<stop  offset="0" style="stop-color:#4F52FF"/>
						<stop  offset="1" style="stop-color:#4042E2"/>
					</linearGradient>
					<path class="st42" d="M582.2,701.7l25,0.6c2.6,0.1,4.9-1.6,5.7-4.1l1.3-4.2c1-3.1-0.6-6.5-3.6-7.7c-10.1-4.1-20.7-3.9-31.5-0.5
						c-3.1,0.9-4.8,4.2-3.9,7.3l1,3.9C577,699.7,579.4,701.6,582.2,701.7z"/>
				</g>
			</g>
			<g>
				<g class="st38">
					<path class="st2" d="M554.9,604.9h359.9c6.6,0,12-5.4,12-12v-59.2c0-6.6-5.4-12-12-12H554.9c-6.6,0-12,5.4-12,12v59.2
						C542.9,599.5,548.3,604.9,554.9,604.9z"/>
					<polygon class="st2" points="628.4,602 610.5,630.5 594,600.6 					"/>
				</g>
				
					<ellipse transform="matrix(0.7071 -0.7071 0.7071 0.7071 -143.4244 784.0425)" class="st2" cx="874.7" cy="565.1" rx="33.4" ry="33.4"/>
				<g>
					<linearGradient id="SVGID_33_" gradientUnits="userSpaceOnUse" x1="898.7941" y1="251.3871" x2="913.0828" y2="72.1274">
						<stop  offset="0" style="stop-color:#4F52FF"/>
						<stop  offset="1" style="stop-color:#4042E2"/>
					</linearGradient>
					<path class="st43" d="M864.6,552.5c0,5.7,4.6,11.8,10.2,11.6c5.7-0.2,10.3-6.5,10.3-12.3c0-5.8-4.6-9.7-10.3-9.5
						C869.1,542.6,864.6,546.8,864.6,552.5z"/>
					<linearGradient id="SVGID_34_" gradientUnits="userSpaceOnUse" x1="900.8115" y1="251.5462" x2="915.1003" y2="72.2866">
						<stop  offset="0" style="stop-color:#4F52FF"/>
						<stop  offset="1" style="stop-color:#4042E2"/>
					</linearGradient>
					<path class="st44" d="M887.6,585.8l-25,0.6c-2.6,0.1-4.9-1.6-5.7-4.1l-1.3-4.2c-1-3.1,0.6-6.5,3.6-7.7
						c10.1-4.1,20.7-3.9,31.5-0.5c3.1,0.9,4.8,4.2,3.9,7.3l-1,3.9C892.7,583.9,890.3,585.8,887.6,585.8z"/>
				</g>
			</g>
			<g>
				<g class="st38">
					<path class="st2" d="M559.3,833.4h359.9c6.6,0,12-5.4,12-12v-59.2c0-6.6-5.4-12-12-12H559.3c-6.6,0-12,5.4-12,12v59.2
						C547.3,828,552.7,833.4,559.3,833.4z"/>
					<polygon class="st2" points="632.8,830.5 614.9,858.9 598.3,829.1 					"/>
				</g>
				
					<ellipse transform="matrix(0.9871 -0.1602 0.1602 0.9871 -115.7673 151.054)" class="st2" cx="879" cy="793.6" rx="33.4" ry="33.4"/>
				<g>
					<linearGradient id="SVGID_35_" gradientUnits="userSpaceOnUse" x1="921.1907" y1="253.1714" x2="935.4795" y2="73.9117">
						<stop  offset="0" style="stop-color:#4F52FF"/>
						<stop  offset="1" style="stop-color:#4042E2"/>
					</linearGradient>
					<path class="st45" d="M868.9,780.9c0,5.7,4.6,11.8,10.2,11.6c5.7-0.2,10.3-6.5,10.3-12.3c0-5.8-4.6-9.7-10.3-9.5
						C873.5,771,868.9,775.2,868.9,780.9z"/>
					<linearGradient id="SVGID_36_" gradientUnits="userSpaceOnUse" x1="923.2074" y1="253.3406" x2="937.4962" y2="74.081">
						<stop  offset="0" style="stop-color:#4F52FF"/>
						<stop  offset="1" style="stop-color:#4042E2"/>
					</linearGradient>
					<path class="st46" d="M891.9,814.3l-25,0.6c-2.6,0.1-4.9-1.6-5.7-4.1l-1.3-4.2c-1-3.1,0.6-6.5,3.6-7.7
						c10.1-4.1,20.7-3.9,31.5-0.5c3.1,0.9,4.8,4.2,3.9,7.3l-1,3.9C897.1,812.3,894.7,814.2,891.9,814.3z"/>
				</g>
			</g>
		</g>
		<g>
			<g>
				<g>
					
						<linearGradient id="SVGID_37_" gradientUnits="userSpaceOnUse" x1="-4818.4497" y1="1076.3383" x2="-4755.4136" y2="1076.3383" gradientTransform="matrix(-1 0 0 1 -3864.1182 0)">
						<stop  offset="0" style="stop-color:#4F52FF"/>
						<stop  offset="1" style="stop-color:#4042E2"/>
					</linearGradient>
					<path class="st47" d="M893.1,1073.3c10.8,0.9,29.5,2.4,44.3,3.1c8.9,0.4,14-0.5,16.9-1.7c0,0.3,0,0.6,0,0.9
						c-0.1,1.6-1.3,2.8-2.9,2.9c-27.9,1.6-50.1,0.5-58,0.1c-1.6-0.1-2.6-1.9-1.8-3.3C892,1074.6,892.5,1074,893.1,1073.3z"/>
					
						<linearGradient id="SVGID_38_" gradientUnits="userSpaceOnUse" x1="-4818.4536" y1="1063.984" x2="-4757.1934" y2="1063.984" gradientTransform="matrix(-1 0 0 1 -3864.1182 0)">
						<stop  offset="0" style="stop-color:#09005D"/>
						<stop  offset="1" style="stop-color:#1A0F91"/>
					</linearGradient>
					<path class="st48" d="M937.4,1076.4c-14.8-0.7-33.5-2.2-44.3-3.1c10.6-13,44.3-21.8,44.3-21.8h9.5c6.5,9.4,7.5,18.4,7.4,23.2
						C951.4,1075.9,946.3,1076.8,937.4,1076.4z"/>
					
						<linearGradient id="SVGID_39_" gradientUnits="userSpaceOnUse" x1="-4812.6299" y1="1046.7357" x2="-4794.874" y2="1046.7357" gradientTransform="matrix(-1 0 0 1 -3864.1182 0)">
						<stop  offset="0" style="stop-color:#FEBBBA"/>
						<stop  offset="1" style="stop-color:#FF928E"/>
					</linearGradient>
					<path class="st49" d="M948.5,1035.9l-0.9,17.6c-0.1,1.9-1.5,3.5-3.4,3.8c-1.9,0.3-4.4,0.3-7.1-0.6c-1.7-0.6-2.9-2-3.2-3.7
						l-3.1-17.2H948.5z"/>
				</g>
				<g>
					<g>
						
							<linearGradient id="SVGID_40_" gradientUnits="userSpaceOnUse" x1="-4944.1182" y1="1074.9789" x2="-4919.9614" y2="1074.9789" gradientTransform="matrix(-1 0 0 1 -3864.1182 0)">
							<stop  offset="0" style="stop-color:#4F52FF"/>
							<stop  offset="1" style="stop-color:#4042E2"/>
						</linearGradient>
						<path class="st50" d="M1072.1,1076.3c4.7-0.7,6.8-3.1,7.7-5.7c0,0,0,0,0,0.1c0.7,2.7-0.9,5.6-4.1,6.9
							c-3.9,1.6-8.1,1.9-11.4,1.8c-3.5-0.1-6.7-1.6-8.5-3.9l0,0C1059.4,1077.1,1064.3,1077.3,1072.1,1076.3z"/>
						
							<linearGradient id="SVGID_41_" gradientUnits="userSpaceOnUse" x1="-4943.9424" y1="1056.379" x2="-4908.4854" y2="1056.379" gradientTransform="matrix(-1 0 0 1 -3864.1182 0)">
							<stop  offset="0" style="stop-color:#09005D"/>
							<stop  offset="1" style="stop-color:#1A0F91"/>
						</linearGradient>
						<path class="st51" d="M1050.1,1035.8h7.8c12-0.2,19.5,25,21.9,34.7c-0.9,2.6-3,5-7.7,5.7c-7.8,1.1-12.8,0.9-16.3-0.9
							c-6.5-8.5-9.7-20.9-11.2-28.2C1042.9,1038.9,1050.1,1035.8,1050.1,1035.8z"/>
					</g>
					
						<linearGradient id="SVGID_42_" gradientUnits="userSpaceOnUse" x1="-4925.5122" y1="1031.9336" x2="-4904.292" y2="1031.9336" gradientTransform="matrix(-1 0 0 1 -3864.1182 0)">
						<stop  offset="0" style="stop-color:#FEBBBA"/>
						<stop  offset="1" style="stop-color:#FF928E"/>
					</linearGradient>
					<path class="st52" d="M1056.9,1019.5l4.4,17.3c0.5,2.1-0.5,4.3-2.4,5.3c-2.4,1.3-5.9,2.6-9,2.2c-1.5-0.2-2.7-1.2-3.2-2.6
						l-6.4-18.2L1056.9,1019.5z"/>
				</g>
				<linearGradient id="SVGID_43_" gradientUnits="userSpaceOnUse" x1="1157.9159" y1="732.4288" x2="1084.3068" y2="806.0378">
					<stop  offset="0" style="stop-color:#4F52FF"/>
					<stop  offset="1" style="stop-color:#4042E2"/>
				</linearGradient>
				<path class="st53" d="M1062.1,1024.5c-5.4,4.8-23.1,5.4-23.1,5.4c-63.5-152.5-89.5-174.2-89.5-174.2c9.2,57.6,1.5,185,1.5,185
					c-10.5,4.6-24,0-24,0c-0.9-94.2-15.3-176.4-32.4-241.2c42.9-1,65.8-15.7,73.2-21.6C1003.6,835.7,1062.1,1024.5,1062.1,1024.5z"
					/>
				
					<linearGradient id="SVGID_44_" gradientUnits="userSpaceOnUse" x1="-4342.4634" y1="-1469.6053" x2="-4361.9482" y2="-1372.1816" gradientTransform="matrix(-1 0 0 1 -3864.1182 0)">
					<stop  offset="0" style="stop-color:#FF928E"/>
					<stop  offset="1" style="stop-color:#FE7062"/>
				</linearGradient>
				<path class="st54" d="M956.9,602.6c8.1,40.5,5.2,113.1,3.3,146.2c-0.5,9.3,6,22.2,11.2,31c0.8,1.4,0.3,3.1-1.1,3.9
					c-8.8,4.5-38.6,18.5-73.1,20.3c-2.3,0.1-4.4-1.5-5-3.7c-25.6-95.6-55.3-156.6-55.3-156.6C869.7,591.3,956.9,602.6,956.9,602.6z"
					/>
				<linearGradient id="SVGID_45_" gradientUnits="userSpaceOnUse" x1="936.1541" y1="829.795" x2="1001.1034" y2="628.0197">
					<stop  offset="0" style="stop-color:#4F52FF"/>
					<stop  offset="1" style="stop-color:#4042E2"/>
				</linearGradient>
				<path class="st55" d="M945.2,852.2c0.4,0,0.7-0.1,1.1-0.3c1-0.6,1.3-1.8,0.7-2.8c-0.3-0.6-8.6-13.8-25.2-21.9
					c-1-0.5-2.2-0.1-2.7,0.9c-0.5,1-0.1,2.2,0.9,2.7c15.5,7.5,23.4,20.2,23.5,20.3C943.8,851.8,944.5,852.2,945.2,852.2z"/>
				<g>
					
						<linearGradient id="SVGID_46_" gradientUnits="userSpaceOnUse" x1="-4828.2925" y1="722.6207" x2="-4903.833" y2="789.5137" gradientTransform="matrix(-1 0 0 1 -3864.1182 0)">
						<stop  offset="0" style="stop-color:#FEBBBA"/>
						<stop  offset="1" style="stop-color:#FF928E"/>
					</linearGradient>
					<path class="st56" d="M1007.9,719c-2.6,18.9-10.3,39.5-25.8,61.4l-5.9-4.8c0,0,6.8-27.5,2.9-58.7
						C988.7,715.1,999.9,717,1007.9,719z"/>
					
						<linearGradient id="SVGID_47_" gradientUnits="userSpaceOnUse" x1="-4411.2188" y1="-1483.3599" x2="-4430.7036" y2="-1385.9362" gradientTransform="matrix(-1 0 0 1 -3864.1182 0)">
						<stop  offset="0" style="stop-color:#FF928E"/>
						<stop  offset="1" style="stop-color:#FE7062"/>
					</linearGradient>
					<path class="st57" d="M947.8,652.7l9.1-50c0,0,60.7,46.4,51,116.4c-7.9-2-19.2-3.9-28.7-2.1
						C976.4,694.5,968.1,670.1,947.8,652.7z"/>
				</g>
				<g>
					
						<linearGradient id="SVGID_48_" gradientUnits="userSpaceOnUse" x1="-4270.2051" y1="-1455.1617" x2="-4289.6899" y2="-1357.7383" gradientTransform="matrix(-1 0 0 1 -3864.1182 0)">
						<stop  offset="0" style="stop-color:#FF928E"/>
						<stop  offset="1" style="stop-color:#FE7062"/>
					</linearGradient>
					<path class="st58" d="M836.9,643.7l23.4,50.4c-3.8,30.4-20.1,43.6-37.8,48.7c-1.1-13.9-4.6-25.1-7.9-32.8
						C837.2,686.7,836.9,643.7,836.9,643.7z"/>
					
						<linearGradient id="SVGID_49_" gradientUnits="userSpaceOnUse" x1="-4686.6831" y1="728.9481" x2="-4627.1919" y2="728.9481" gradientTransform="matrix(-1 0 0 1 -3864.1182 0)">
						<stop  offset="0" style="stop-color:#FEBBBA"/>
						<stop  offset="1" style="stop-color:#FF928E"/>
					</linearGradient>
					<path class="st59" d="M814.7,709.9c3.3,7.8,6.8,19,7.9,32.8c-47,18.3-59.5-17.1-59.5-17.1l8.7-1.5
						C791.4,726.1,805.1,719.8,814.7,709.9z"/>
				</g>
				
					<linearGradient id="SVGID_50_" gradientUnits="userSpaceOnUse" x1="-4744.5103" y1="569.9658" x2="-4745.1597" y2="681.0614" gradientTransform="matrix(-1 0 0 1 -3864.1182 0)">
					<stop  offset="0" style="stop-color:#FEBBBA"/>
					<stop  offset="1" style="stop-color:#FF928E"/>
				</linearGradient>
				<path class="st60" d="M858.5,581.4l11.3,41.6c1.3,4.7,6.3,7.2,10.8,5.4c4.8-1.9,11-4.6,16.3-7.4c5.7-3.1,7.4-10.3,3.8-15.7
					l-23.5-35L858.5,581.4z"/>
			</g>
			<linearGradient id="SVGID_51_" gradientUnits="userSpaceOnUse" x1="754.3151" y1="699.2447" x2="976.874" y2="803.1632">
				<stop  offset="0" style="stop-color:#09005D"/>
				<stop  offset="1" style="stop-color:#1A0F91"/>
			</linearGradient>
			<path class="st61" d="M741.5,697.8l289.6,105.4c12.1,4.4,18,18.3,12.6,30l-0.9,1.9c-4.7,10.4-17,15-27.4,10.2L734.2,715.2
				L741.5,697.8z"/>
			<ellipse class="st62" cx="608.4" cy="634.4" rx="143" ry="140.4"/>
			<linearGradient id="SVGID_52_" gradientUnits="userSpaceOnUse" x1="478.7725" y1="528.9671" x2="724.7131" y2="729.0101">
				<stop  offset="0" style="stop-color:#09005D"/>
				<stop  offset="1" style="stop-color:#1A0F91"/>
			</linearGradient>
			<path class="st63" d="M449.3,634.4c0,86.3,71.2,156.2,159.1,156.2c87.9,0,159.1-69.9,159.1-156.2c0-86.3-71.2-156.2-159.1-156.2
				C520.5,478.2,449.3,548.1,449.3,634.4z M472.7,634.4c0-73.6,60.8-133.3,135.7-133.3c75,0,135.7,59.7,135.7,133.3
				c0,73.6-60.8,133.3-135.7,133.3C533.4,767.7,472.7,708,472.7,634.4z"/>
			<path class="st4" d="M755.2,653.7c-0.6-0.1-1-0.6-0.9-1.2c0.5-3.7,0.8-7.4,1-11c0-0.6,0.4-1.1,1.1-1c0.6,0,1,0.5,1,1.1
				c-0.2,3.7-0.5,7.5-1,11.2c-0.1,0.5-0.5,0.9-1.1,0.9C755.3,653.7,755.3,653.7,755.2,653.7z M753.2,609.2
				c-1.8-9.9-4.6-19.6-8.5-28.9c0,0,0,0,0,0c-22.6-54.8-76.1-90.3-136.4-90.3c-28.1,0-55.4,7.8-79,22.6c-0.5,0.3-1.2,0.2-1.5-0.3
				c-0.3-0.5-0.2-1.2,0.3-1.5c23.9-15,51.6-22.9,80.1-22.9c61.1,0,115.4,36,138.4,91.6l0,0c3.9,9.4,6.8,19.3,8.6,29.4
				c0.1,0.6-0.3,1.1-0.9,1.2c-0.1,0-0.1,0-0.2,0C753.8,610.1,753.3,609.7,753.2,609.2z"/>
			<g>
				
					<linearGradient id="SVGID_53_" gradientUnits="userSpaceOnUse" x1="-5014.3057" y1="1533.7192" x2="-5068.9922" y2="1606.0647" gradientTransform="matrix(-0.9897 -0.1428 -0.1428 0.9897 -3899.3008 -1682.2667)">
					<stop  offset="0" style="stop-color:#FEBBBA"/>
					<stop  offset="1" style="stop-color:#FF928E"/>
				</linearGradient>
				<path class="st64" d="M833.8,549.9c-0.1,0.7,9.4,47.4,9.4,47.4l26.6-6l-2.5-45.6C867.3,545.7,835.5,537.9,833.8,549.9z"/>
				
					<linearGradient id="SVGID_54_" gradientUnits="userSpaceOnUse" x1="-5899.0518" y1="563.6041" x2="-5709.3145" y2="587.5939" gradientTransform="matrix(-1 0 0 1 -5004.8516 0)">
					<stop  offset="0" style="stop-color:#09005D"/>
					<stop  offset="1" style="stop-color:#1A0F91"/>
				</linearGradient>
				<path class="st65" d="M861.3,555.8l3.2,23.9c0,0.3,0,0.6,0,0.9c-0.3,1.9-1.7,8.3-8.1,6.4c-5.8-1.7-11.2-3.1-14.9-1.9
					c-1.7,0.5-2.7,2.2-2.3,3.9c0.9,4.2,3,13.8,6.1,21.8c0.6,1.6,2.4,2.5,4.1,2c5-1.5,15.6-4.9,23.4-9.6c1.1-0.6,1.7-1.8,1.6-3
					c-0.3-6-1-24.4-0.4-29.5c0.6-4.8,6.5-7.7,9.1-8.8c0.8-0.3,1.5-1,1.8-1.8c1.2-3,2.8-9.9-5.9-12.7c-1.8-0.6-2.8-2.6-2.1-4.4
					c1.3-3.6,1.8-9.1-4.9-12.1c-6.8-3.1-12,0.6-14.7,3.5c-1.1,1.2-2.9,1.4-4.3,0.5c-0.8-0.5-1.8-0.7-3,0.1c-1.7,1-3.8,0.3-4.7-1.4
					c-1.6-3.4-5-7-11.7-5.8c-11.9,2-13.2,15.2-10.1,22.9c3.1,7.7,15.9,4.8,22.3,0.9c4.9-3,11.2,0.1,13.9,1.8
					C860.6,553.9,861.2,554.8,861.3,555.8z"/>
				
					<linearGradient id="SVGID_55_" gradientUnits="userSpaceOnUse" x1="-5094.3999" y1="1591.0112" x2="-5050.5366" y2="1546.0092" gradientTransform="matrix(-0.9897 -0.1428 -0.1428 0.9897 -3899.3008 -1682.2667)">
					<stop  offset="0" style="stop-color:#FEBBBA"/>
					<stop  offset="1" style="stop-color:#FF928E"/>
				</linearGradient>
				<path class="st66" d="M875.1,579.3c0,0-4.9-13.7,0.1-17.1s12.5-1.6,10.8,8.3C884,582.9,875.1,579.3,875.1,579.3z"/>
			</g>
			
				<linearGradient id="SVGID_56_" gradientUnits="userSpaceOnUse" x1="-4798.4614" y1="756.3083" x2="-4874.002" y2="823.2011" gradientTransform="matrix(-1 0 0 1 -3864.1182 0)">
				<stop  offset="0" style="stop-color:#FEBBBA"/>
				<stop  offset="1" style="stop-color:#FF928E"/>
			</linearGradient>
			<path class="st67" d="M978.7,774.8l-27.4-2.2l-11.9,10.9c0,0,2.8,3.9,11.6,1.6c8.8-2.2,20.8-2.8,20.8-2.8s12.1,5.5,12.3-4.8
				L978.7,774.8z"/>
			
				<linearGradient id="SVGID_57_" gradientUnits="userSpaceOnUse" x1="-4633.5122" y1="721.9612" x2="-4612.208" y2="721.9612" gradientTransform="matrix(-1 0 0 1 -3864.1182 0)">
				<stop  offset="0" style="stop-color:#FEBBBA"/>
				<stop  offset="1" style="stop-color:#FF928E"/>
			</linearGradient>
			<path class="st68" d="M766.6,732.1c-2.4,1.8-10.5-2-15.4-4.7c-2.4-1.3-3.6-4.1-2.8-6.7c1.2-3.8,3.2-8.6,5.6-9.2
				C758.1,710.4,776.3,724.5,766.6,732.1z"/>
			<path class="st4" d="M1025.4,841.3c0.1,0,0.2,0,0.4-0.1c11.3-3.9,13.9-10.6,14.2-15.5c0.3-7.2-4.2-13.9-11.2-16.6l-34.8-13.6
				c-0.5-0.2-1.2,0.1-1.4,0.6c-0.2,0.5,0.1,1.2,0.6,1.4l34.8,13.6c6.2,2.4,10.1,8.2,9.9,14.5c-0.3,6.2-4.5,10.8-12.7,13.6
				c-0.6,0.2-0.9,0.8-0.7,1.4C1024.6,841,1025,841.3,1025.4,841.3z"/>
			<path class="st4" d="M982.8,793.4c0.4,0,0.8-0.3,1-0.7c0.2-0.6-0.1-1.2-0.6-1.4l-4.5-1.8c-0.5-0.2-1.2,0.1-1.4,0.6
				c-0.2,0.6,0.1,1.2,0.6,1.4l4.5,1.8C982.6,793.4,982.7,793.4,982.8,793.4z"/>
		</g>
		<path class="st69" d="M380.2,767.7H73.9c-5.8,0-10.5-4.7-10.5-10.5v-6.3c0-5.8,4.7-10.5,10.5-10.5h306.3c5.8,0,10.5,4.7,10.5,10.5
			v6.3C390.7,762.9,386,767.7,380.2,767.7z"/>
		<path class="st69" d="M378.2,809.2H71.9c-5.8,0-10.5-4.7-10.5-10.5v-6.3c0-5.8,4.7-10.5,10.5-10.5h306.3c5.8,0,10.5,4.7,10.5,10.5
			v6.3C388.7,804.5,384,809.2,378.2,809.2z"/>
	</g>
</g>
</svg>
